<svg width="63" height="63" viewBox="0 0 63 63" fill="none" xmlns="http://www.w3.org/2000/svg">
<path d="M53.2596 13.5992C53.2581 13.4247 53.2088 13.2539 53.1171 13.1054C53.0254 12.957 52.8947 12.8365 52.7392 12.7571C52.5838 12.6778 52.4096 12.6425 52.2355 12.6553C52.0614 12.668 51.8942 12.7282 51.752 12.8294L48.0073 15.5138L47.7124 15.7261C43.6773 11.6991 38.1389 9.18103 32.0021 9.18103C19.6951 9.18103 9.68311 19.1943 9.68311 31.5007C9.68311 43.8071 19.6957 53.8203 32.0021 53.8203C35.6566 53.821 39.2553 52.9241 42.482 51.2085C45.7087 49.4928 48.4647 47.011 50.5077 43.981C50.5902 43.8596 50.6478 43.7231 50.6774 43.5793C50.707 43.4356 50.7079 43.2874 50.6801 43.1433C50.6523 42.9992 50.5963 42.862 50.5154 42.7396C50.4345 42.6172 50.3302 42.5119 50.2085 42.4299L44.6248 38.5548C44.3621 38.3791 44.0407 38.3145 43.7305 38.3749C43.4204 38.4353 43.1467 38.6159 42.9692 38.8773C40.5008 42.5263 36.4109 44.7048 32.0229 44.7048C24.7414 44.7048 18.8168 38.7816 18.8168 31.5019C18.8168 24.2223 24.7414 18.299 32.0229 18.299C35.096 18.299 37.9147 19.3675 40.1587 21.134L39.5281 21.5876L35.7809 24.2714C35.6395 24.3739 35.5291 24.5132 35.4615 24.6741C35.3939 24.835 35.3718 25.0114 35.3976 25.184C35.4234 25.3567 35.4962 25.5189 35.6078 25.653C35.7195 25.7871 35.8659 25.888 36.031 25.9447L52.0619 31.4062C52.3524 31.5076 52.6705 31.4585 52.9238 31.2783C53.1751 31.0956 53.3201 30.8077 53.3188 30.5028L53.2596 13.5992Z" fill="#1D75DD"/>
</svg>
